<?xml version="1.0" encoding="UTF-8" standalone="no"?>
<!-- Created with Inkscape (http://www.inkscape.org/) -->

<svg
   width="18.996271mm"
   height="16.532034mm"
   viewBox="0 0 18.996271 16.532034"
   version="1.1"
   id="svg1"
   xml:space="preserve"
   inkscape:version="1.3.2 (091e20e, 2023-11-25, custom)"
   sodipodi:docname="mininaranjiverdeTrayecto.svg"
   xmlns:inkscape="http://www.inkscape.org/namespaces/inkscape"
   xmlns:sodipodi="http://sodipodi.sourceforge.net/DTD/sodipodi-0.dtd"
   xmlns="http://www.w3.org/2000/svg"
   xmlns:svg="http://www.w3.org/2000/svg"><sodipodi:namedview
     id="namedview1"
     pagecolor="#ffffff"
     bordercolor="#111111"
     borderopacity="1"
     inkscape:showpageshadow="0"
     inkscape:pageopacity="0"
     inkscape:pagecheckerboard="1"
     inkscape:deskcolor="#d1d1d1"
     inkscape:document-units="mm"
     inkscape:zoom="3.7849002"
     inkscape:cx="46.500566"
     inkscape:cy="7.1336095"
     inkscape:window-width="2000"
     inkscape:window-height="1096"
     inkscape:window-x="-9"
     inkscape:window-y="112"
     inkscape:window-maximized="1"
     inkscape:current-layer="g1" /><defs
     id="defs1" /><g
     inkscape:groupmode="layer"
     id="layer4"
     inkscape:label="Capa 3"
     transform="translate(-170.2704,-447.15206)"><g
       id="g7-7-7-1"
       transform="matrix(0.13717206,0,0,0.13717206,243.5952,494.29052)"
       inkscape:export-filename="miniLogoRojito.png"
       inkscape:export-xdpi="811.81024"
       inkscape:export-ydpi="811.81024"><g
         id="g5-0-4-8-4-7"
         transform="matrix(0.13643193,2.6906386,-2.5605093,0.12281141,-205.57522,-793.18392)"><g
           id="g1"
           transform="translate(45.037744,175.2219)"
           inkscape:export-filename="mininaranjiverde.svg"
           inkscape:export-xdpi="668.55219"
           inkscape:export-ydpi="668.55219"><g
             id="g2"><path
               style="-inkscape-font-specification:'Century Gothic';fill:#da3b00;stroke-width:0.0936218;stroke-linejoin:round;paint-order:fill markers stroke"
               d="m 125.86477,-41.085977 -3.70901,-0.197628 1.01768,-22.296202 33.88055,19.518551 0.76588,-16.779616 3.73513,0.199019 -1.06358,23.30183 L 126.59,-56.974894 Z"
               id="text3-2-8-1-0-3"
               aria-label="Z" /><path
               style="fill:#2ca089;fill-opacity:1;stroke-width:0.12473;stroke-linejoin:round;paint-order:fill markers stroke"
               d="m 137.25826,-75.993335 c -0.31764,-0.452442 -1.49022,-2.318131 -3.3934,-0.34369 -2.1665,2.247625 -2.26243,4.938989 -2.26243,4.938989 l -3.5827,3.273614 c 0,0 0.49898,-6.53401 3.47366,-9.736235 3.79232,-4.082405 6.10586,-2.543538 7.88743,-0.264665"
               id="path5-5-9-8-6-4"
               sodipodi:nodetypes="csccsc" /><path
               style="-inkscape-font-specification:'Century Gothic Bold';stroke-width:0.264583;stroke-linejoin:round;paint-order:fill markers stroke"
               d="m 136.09574,-73.501287 q 3.57526,0 6.14212,2.589775 2.57831,2.589774 2.57831,6.314008 0,3.689855 -2.54393,6.245252 -2.53248,2.555397 -6.15358,2.555397 -3.79299,0 -6.30255,-2.624152 -2.50956,-2.624152 -2.50956,-6.233793 0,-2.417887 1.16883,-4.446162 1.16884,-2.028274 3.20857,-3.20857 2.0512,-1.191755 4.41179,-1.191755 z m -0.0344,3.139816 q -2.33767,0 -3.9305,1.627203 -1.59282,1.627203 -1.59282,4.136764 0,2.796039 2.00535,4.423243 1.55845,1.271969 3.57527,1.271969 2.28037,0 3.88466,-1.650122 1.60428,-1.650122 1.60428,-4.068009 0,-2.406427 -1.61574,-4.068008 -1.61574,-1.67304 -3.9305,-1.67304 z"
               id="text1-4-3-4-7-7"
               inkscape:label="PTICA"
               aria-label="O" /><g
               id="g6-0-8-7-3-3"
               transform="matrix(0.47055097,0.03092152,-0.02648829,0.47055097,140.53303,-101.72875)"
               inkscape:label="g6"><path
                 style="fill:#2ca089;fill-opacity:1;stroke-width:0.264583;stroke-linejoin:round;paint-order:fill markers stroke"
                 d="M 6.6190063,43.056394 C 5.7065728,42.364149 2.3676676,40.115343 6.0931938,35.60256 10.334184,30.465386 19.998835,29.074917 19.998835,29.074917 l 9.763807,-5.760484 c 0,0 -15.27583,-4.08602 -26.843572,6.975366 -8.5036902,8.131458 -5.0892151,13.61211 -0.4792865,17.514951"
                 id="path5-5-4-9-3-7-3"
                 sodipodi:nodetypes="csccsc" /><path
                 style="-inkscape-font-specification:'Century Gothic Bold';stroke-width:0.264583;stroke-linejoin:round;paint-order:fill markers stroke"
                 d="m 29.978168,22.948787 q 7.739062,0 13.295312,5.60586 5.581055,5.605859 5.581055,13.667382 0,7.98711 -5.506641,13.518555 -5.481836,5.531445 -13.320117,5.531445 -8.210351,0 -13.642578,-5.680273 -5.432226,-5.680274 -5.432226,-13.49375 0,-5.233789 2.530078,-9.624219 2.530078,-4.390429 6.945312,-6.945312 4.440039,-2.579688 9.549805,-2.579688 z m -0.07441,6.796485 q -5.060156,0 -8.508008,3.522265 -3.447851,3.522266 -3.447851,8.954492 0,6.052344 4.34082,9.57461 3.373437,2.75332 7.739062,2.75332 4.936133,0 8.408789,-3.571875 3.472656,-3.571875 3.472656,-8.805664 0,-5.208984 -3.49746,-8.805664 -3.497461,-3.621484 -8.508008,-3.621484 z"
                 id="text2-5-3-2-6-0"
                 inkscape:label="O arriba"
                 aria-label="O" /><path
                 style="fill:#000000;fill-opacity:1;stroke-width:0.264583;stroke-linejoin:round;paint-order:fill markers stroke"
                 d="M 3.9447105,71.205703 C 0.33023004,46.019334 21.978,51.738741 21.978,51.738741 l -3.497972,5.607135 c 0,0 -10.2123179,-1.659314 -9.3803238,9.471675 0.2110972,2.824204 -3.3462916,4.131671 -5.1549937,4.388152 z"
                 id="path2-5-8-2-4-3"
                 sodipodi:nodetypes="cccsc" /></g></g></g></g></g></g></svg>
