<?xml version="1.0" encoding="UTF-8" standalone="no"?>
<!-- Created with Inkscape (http://www.inkscape.org/) -->

<svg
   width="541.0658mm"
   height="541.30627mm"
   viewBox="0 0 541.0658 541.30627"
   version="1.1"
   id="svg1"
   xml:space="preserve"
   xmlns:inkscape="http://www.inkscape.org/namespaces/inkscape"
   xmlns:sodipodi="http://sodipodi.sourceforge.net/DTD/sodipodi-0.dtd"
   xmlns="http://www.w3.org/2000/svg"
   xmlns:svg="http://www.w3.org/2000/svg"><sodipodi:namedview
     id="namedview1"
     pagecolor="#ffffff"
     bordercolor="#111111"
     borderopacity="1"
     inkscape:showpageshadow="0"
     inkscape:pageopacity="0"
     inkscape:pagecheckerboard="1"
     inkscape:deskcolor="#d1d1d1"
     inkscape:document-units="mm" /><defs
     id="defs1" /><g
     inkscape:label="Capa 1"
     inkscape:groupmode="layer"
     id="layer1"
     transform="translate(165.50286,-598.4268)"><path
       style="fill:#272f3e"
       d="m 90.0833,1139.4743 c -12.700737,-0.6798 -27.65003,-2.6623 -40.878123,-5.4211 -47.4330788,-9.8924 -92.010016,-32.9401 -127.9201,-66.139 -4.736327,-4.3787 -15.12102,-15.019 -19.210224,-19.683 -23.426803,-26.72 -40.632843,-55.92593 -52.283953,-88.74799 -8.289,-23.35075 -12.94604,-45.9412 -14.94873,-72.5136 -0.46019,-6.10599 -0.46001,-29.43816 2.8e-4,-35.58645 1.81958,-24.30498 5.77675,-44.76165 12.89246,-66.64785 6.43769,-19.80074 16.09327,-40.5153 27.2067,-58.36777 22.19951,-35.66101 52.794209,-66.0795 88.538571,-88.02865 46.540537,-28.57863 99.352731,-42.09876 154.781239,-39.6246 32.63483,1.45672 66.01431,9.32693 95.91146,22.61401 37.40907,16.62557 69.3318,40.35511 96.45847,71.70174 18.52165,21.40297 34.75587,48.06638 45.42839,74.6125 10.92897,27.18399 16.90857,53.43387 19.16615,84.13749 0.45129,6.13773 0.4488,29.01137 -0.004,35.05729 -2.25538,30.12634 -8.07188,55.80115 -18.70519,82.56726 -9.26946,23.33304 -21.54692,44.73892 -37.80653,65.91622 -10.13642,13.2021 -24.85404,28.5596 -38.25934,39.9227 -13.87729,11.7631 -28.57826,22.0034 -43.65625,30.4097 -36.56545,20.3859 -76.60197,31.7746 -119.03514,33.8605 -6.28884,0.3091 -21.570734,0.2874 -27.67631,-0.039 z m 31.35312,-81.5733 c 30.29742,-2.8079 56.34312,-11.383 82.43277,-27.1394 11.69969,-7.0659 24.94342,-17.414 33.9451,-26.5234 2.89962,-2.9343 3.00142,-1.988 -0.83164,-7.73109 -14.79244,-22.1637 -33.97638,-40.2437 -56.14727,-52.91627 -19.38393,-11.07959 -39.69614,-17.5373 -62.17708,-19.76751 -5.36077,-0.53181 -23.257764,-0.44461 -28.442709,0.13858 -9.191696,1.03386 -15.730445,2.20315 -23.253097,4.15821 -30.965782,8.04771 -59.162514,25.93989 -81.081988,51.45041 -5.093255,5.92768 -11.823714,15.02897 -15.128013,20.45687 l -1.015563,1.6683 2.626313,2.6556 c 6.066705,6.1344 14.471497,13.1702 23.0395836,19.2871 14.5278492,10.3715 31.1607414,18.9367 48.0606854,24.7492 4.154174,1.4288 14.02072,4.2337 18.838539,5.3556 10.047843,2.3398 21.268335,3.8922 33.602082,4.6492 3.751182,0.2303 21.413957,-0.1097 25.532287,-0.4914 z m -9.92187,-189.06718 c 12.8986,-1.10079 24.48751,-4.85911 35.66149,-11.56513 10.79065,-6.47596 20.82994,-16.56194 27.45369,-27.58136 10.65657,-17.72852 14.09819,-38.87549 9.65934,-59.3515 -4.02825,-18.5819 -15.01623,-35.64317 -30.45038,-47.28098 -11.41536,-8.60752 -24.36319,-13.85537 -38.92635,-15.77714 -4.6291,-0.61087 -15.025068,-0.60577 -19.801957,0.01 -14.738739,1.899 -29.262941,7.97333 -40.61354,16.98544 -3.567117,2.8322 -11.225583,10.68355 -13.992983,14.34539 -7.369393,9.75124 -12.602447,21.16564 -14.944063,32.59617 -2.014249,9.8325 -2.247613,19.83923 -0.689395,29.56149 5.485003,34.22283 32.161576,61.188 66.403522,67.1219 6.546699,1.13449 13.919716,1.47546 20.240626,0.93602 z"
       id="path1"
       inkscape:export-filename="path1.svg"
       inkscape:export-xdpi="96"
       inkscape:export-ydpi="96" /></g></svg>
