<?xml version="1.0" encoding="UTF-8" standalone="no"?>
<!-- Created with Inkscape (http://www.inkscape.org/) -->

<svg
   width="31.658144mm"
   height="16.263187mm"
   viewBox="0 0 31.658144 16.263187"
   version="1.1"
   id="svg1"
   xml:space="preserve"
   inkscape:version="1.3.2 (091e20e, 2023-11-25, custom)"
   sodipodi:docname="verdinaranjaTrayecto.svg"
   xmlns:inkscape="http://www.inkscape.org/namespaces/inkscape"
   xmlns:sodipodi="http://sodipodi.sourceforge.net/DTD/sodipodi-0.dtd"
   xmlns="http://www.w3.org/2000/svg"
   xmlns:svg="http://www.w3.org/2000/svg"><sodipodi:namedview
     id="namedview1"
     pagecolor="#ffffff"
     bordercolor="#111111"
     borderopacity="1"
     inkscape:showpageshadow="0"
     inkscape:pageopacity="0"
     inkscape:pagecheckerboard="1"
     inkscape:deskcolor="#d1d1d1"
     inkscape:document-units="mm"
     inkscape:zoom="1.8924501"
     inkscape:cx="51.256305"
     inkscape:cy="161.16673"
     inkscape:window-width="2000"
     inkscape:window-height="1096"
     inkscape:window-x="-9"
     inkscape:window-y="112"
     inkscape:window-maximized="1"
     inkscape:current-layer="g1" /><defs
     id="defs1" /><g
     inkscape:groupmode="layer"
     id="layer4"
     inkscape:label="Capa 3"
     transform="translate(-160.66942,-475.4424)"><g
       id="g7-7-7-1"
       transform="matrix(0.13717206,0,0,0.13717206,243.5952,494.29052)"
       inkscape:export-filename="miniLogoRojito.png"
       inkscape:export-xdpi="811.81024"
       inkscape:export-ydpi="811.81024"><g
         id="g5-0-7-0-2-3"
         transform="matrix(1.2535121,0,0,1.1601801,-550.59809,-210.38983)"
         inkscape:export-filename="verdirojo.png"
         inkscape:export-xdpi="804.33191"
         inkscape:export-ydpi="804.33191"><g
           id="g6-0-3-8-2-8"
           transform="matrix(0.47055096,0.03092152,-0.02648829,0.47055097,42.283822,51.770868)"
           inkscape:label="g6" /><g
           id="g1"><g
             id="g2"><g
               id="g5-0-4-8-4-7"
               transform="matrix(0.10883974,2.319156,-2.0426681,0.10585547,275.24495,-502.33071)"><path
                 style="-inkscape-font-specification:'Century Gothic';fill:#2ca089;stroke-width:0.0936221;stroke-linejoin:round;paint-order:fill markers stroke"
                 d="m -146.57107,264.25292 v -3.8948 h 21.28423 l -16.8683,36.42455 h 16.01803 v 3.92223 h -22.24421 l 16.97801,-36.45198 z m 26.02197,-4.90964 h 3.83993 v 16.8683 q 2.33139,-3.07195 5.12906,-4.5805 2.79767,-1.53597 6.06162,-1.53597 3.34623,0 5.924472,1.70054 2.605672,1.70055 3.839937,4.5805 1.234266,2.85252 1.234266,8.969 v 15.35975 h -3.839938 v -14.2352 q 0,-5.15649 -0.411421,-6.88446 -0.713132,-2.96224 -2.605676,-4.44336 -1.86511,-1.50854 -4.90963,-1.50854 -3.48337,0 -6.25361,2.30396 -2.74282,2.30396 -3.62052,5.70505 -0.54856,2.19425 -0.54856,8.11872 v 10.94383 h -3.83993 z m 31.891577,11.51982 h 3.867366 v 13.93348 q 0,5.10163 0.548562,7.0216 0.822844,2.74282 3.126806,4.33365 2.331391,1.59083 5.540481,1.59083 3.209091,0 5.430769,-1.53598 2.249106,-1.5634 3.099378,-4.08679 0.57599,-1.72797 0.57599,-7.32331 V 270.8631 h 3.922222 v 14.64661 q 0,6.17133 -1.45369,9.29814 -1.426263,3.1268 -4.333644,4.90963 -2.879953,1.7554 -7.241025,1.7554 -4.361071,0 -7.295881,-1.7554 -2.907381,-1.78283 -4.361071,-4.93706 -1.426263,-3.18166 -1.426263,-9.54499 z"
                 id="text3-2-82-9-1-1"
                 transform="matrix(0.04781406,-1.047544,0.95229782,0.0507414,0,0)"
                 aria-label="Zhu" /></g><path
               style="fill:#da3b00;fill-opacity:1;stroke-width:0.264583;stroke-linejoin:round;paint-order:fill markers stroke"
               d="M 6.6190063,43.056394 C 5.7065728,42.364149 2.3676676,40.115343 6.0931938,35.60256 10.334184,30.465386 19.998835,29.074917 19.998835,29.074917 l 9.763807,-5.760484 c 0,0 -15.27583,-4.08602 -26.843572,6.975366 -8.5036902,8.131458 -5.0892151,13.61211 -0.4792865,17.514951"
               id="path5-5-4-96-8-4-5"
               sodipodi:nodetypes="csccsc"
               transform="matrix(0.47055096,0.03092152,-0.02648829,0.47055097,42.283822,51.770868)" /><path
               style="-inkscape-font-specification:'Century Gothic Bold';stroke-width:0.264583;stroke-linejoin:round;paint-order:fill markers stroke"
               d="m 29.978168,22.948787 q 7.739062,0 13.295312,5.60586 5.581055,5.605859 5.581055,13.667382 0,7.98711 -5.506641,13.518555 -5.481836,5.531445 -13.320117,5.531445 -8.210351,0 -13.642578,-5.680273 -5.432226,-5.680274 -5.432226,-13.49375 0,-5.233789 2.530078,-9.624219 2.530078,-4.390429 6.945312,-6.945312 4.440039,-2.579688 9.549805,-2.579688 z m -0.07441,6.796485 q -5.060156,0 -8.508008,3.522265 -3.447851,3.522266 -3.447851,8.954492 0,6.052344 4.34082,9.57461 3.373437,2.75332 7.739062,2.75332 4.936133,0 8.408789,-3.571875 3.472656,-3.571875 3.472656,-8.805664 0,-5.208984 -3.49746,-8.805664 -3.497461,-3.621484 -8.508008,-3.621484 z"
               id="text2-5-2-9-0-6"
               inkscape:label="O arriba"
               aria-label="O"
               transform="matrix(0.47055096,0.03092152,-0.02648829,0.47055097,42.283822,51.770868)" /><path
               style="fill:#000000;fill-opacity:1;stroke-width:0.264583;stroke-linejoin:round;paint-order:fill markers stroke"
               d="M 3.9447105,71.205703 C 0.33023004,46.019334 21.978,51.738741 21.978,51.738741 l -3.497972,5.607135 c 0,0 -10.2123179,-1.659314 -9.3803238,9.471675 0.2110972,2.824204 -3.3462916,4.131671 -5.1549937,4.388152 z"
               id="path2-5-5-0-1-0"
               sodipodi:nodetypes="cccsc"
               transform="matrix(0.47055096,0.03092152,-0.02648829,0.47055097,42.283822,51.770868)" /><path
               style="fill:#da3b00;fill-opacity:1;stroke-width:0.254543;stroke-linejoin:round;paint-order:fill markers stroke"
               d="m -3.8664104,52.563743 c -0.7264703,-0.845739 -3.4315958,-4.350903 -7.2259276,-0.236529 -4.319316,4.683638 -4.201643,9.970221 -4.201643,9.970221 l -7.195602,6.87663 c 0,0 0.277723,-12.86887 6.194456,-19.527302 7.5430349,-8.488601 12.6249882,-5.770835 16.66878093,-1.534384"
               id="path5-5-97-8-7-1"
               sodipodi:nodetypes="csccsc"
               transform="matrix(0.47055096,0.03092152,-0.02861916,0.50840495,42.332725,50.902175)"
               inkscape:label="path5-5-97" /><path
               style="-inkscape-font-specification:'Century Gothic Bold';stroke-width:0.264583;stroke-linejoin:round;paint-order:fill markers stroke"
               d="m 37.846538,79.998336 q 3.575263,0 6.14212,2.589774 2.578315,2.589775 2.578315,6.314008 0,3.689856 -2.543938,6.245253 -2.532478,2.555397 -6.153579,2.555397 -3.792988,0 -6.302549,-2.624152 -2.50956,-2.624152 -2.50956,-6.233794 0,-2.417887 1.168836,-4.446161 1.168837,-2.028275 3.208571,-3.208571 2.051193,-1.191754 4.411784,-1.191754 z m -0.03438,3.139815 q -2.337673,0 -3.930498,1.627203 -1.592826,1.627204 -1.592826,4.136764 0,2.79604 2.005356,4.423243 1.558448,1.271969 3.575264,1.271969 2.280377,0 3.884662,-1.650122 1.604285,-1.650121 1.604285,-4.068008 0,-2.406428 -1.615745,-4.068009 -1.615744,-1.67304 -3.930498,-1.67304 z m 17.092995,-2.709043 3.403356,0.01188 q 2.761645,0.0096 3.974511,0.52954 1.224364,0.508481 1.91937,1.656832 0.706505,1.136932 0.700945,2.729748 -0.0062,1.764703 -0.938428,2.930292 -0.920809,1.165629 -2.503766,1.618473 -0.929108,0.26032 -3.381357,0.25176 l -0.02492,7.139025 -3.208551,-0.0112 z m 3.185551,6.600188 1.019861,0.0036 q 1.203206,0.0042 1.67363,-0.166047 0.470423,-0.170246 0.735343,-0.558936 0.276418,-0.400109 0.278378,-0.961605 0.0034,-0.974024 -0.751341,-1.42357 -0.548877,-0.334234 -2.038562,-0.339434 l -0.905269,-0.0032 z m 13.573607,-6.605948 9.316256,0.03252 -0.01104,3.162714 -3.071042,-0.01072 -0.0478,13.693636 -3.254387,-0.01136 0.0478,-13.693636 -2.990827,-0.01044 z m 16.552872,0.005 3.185632,0.01112 -0.05884,16.85635 -3.185632,-0.01112 z m 27.543235,3.022789 -2.25346,2.135014 q -2.28339,-2.425872 -5.14816,-2.435872 -2.41787,-0.0084 -4.08521,1.635872 -1.65587,1.644351 -1.66431,4.062223 -0.006,1.68449 0.72295,2.993388 0.72882,1.308898 2.06693,2.058421 1.33812,0.749522 2.97677,0.755242 1.39801,0.0049 2.55718,-0.50674 1.15921,-0.523079 2.55057,-1.893332 l 2.16931,2.276503 q -1.8742,1.815479 -3.53825,2.520143 -1.66401,0.693206 -3.7954,0.685766 -3.93048,-0.01372 -6.43134,-2.509107 -2.489369,-2.506805 -2.475769,-6.402903 0.0088,-2.521004 1.150089,-4.476551 1.15275,-1.955508 3.27685,-3.139856 2.13555,-1.184307 4.5878,-1.175747 2.08556,0.0073 4.00761,0.896352 1.93351,0.889111 3.32584,2.521184 z m 13.21723,-3.004069 3.25439,0.01136 6.42701,16.87899 -3.3346,-0.01164 -1.30568,-3.47671 -6.87546,-0.024 -1.38721,3.46731 -3.3346,-0.01164 z m 1.63451,4.474813 -2.26618,5.77901 4.48051,0.01564 z"
               id="text1-4-1-2-6-9"
               inkscape:label="PTICA"
               aria-label="OPTICA" /></g></g></g></g></g></svg>
